<svg width="280" height="80" viewBox="0 0 280 80" fill="none" xmlns="http://www.w3.org/2000/svg">
<path d="M49.7969 64.7227C46.3398 63.7461 43.7324 62.1348 41.9746 59.8887C40.2363 57.6621 39.3672 54.7129 39.3672 51.041V45.2109C39.3672 40.4648 37.2969 38.0918 33.1562 38.0918V33.8438C37.2969 33.8438 39.3672 31.4805 39.3672 26.7539V20.6602C39.4062 17.0859 40.2754 14.2051 41.9746 12.0176C43.6934 9.81055 46.3008 8.20898 49.7969 7.21289L50.9102 10.582C46.8281 11.8906 44.7871 15.2988 44.7871 20.8066V26.7246C44.7871 31.1582 43.1562 34.2441 39.8945 35.9824C43.1562 37.7402 44.7871 40.8555 44.7871 45.3281V51.3633C44.8457 56.7344 46.8867 60.0645 50.9102 61.3535L49.7969 64.7227ZM229.943 61.3535C233.908 60.084 235.959 56.8516 236.096 51.6562V45.2109C236.096 40.6992 237.863 37.623 241.398 35.9824C237.863 34.3809 236.096 31.3047 236.096 26.7539V20.8066C236.096 15.2988 234.055 11.8906 229.973 10.582L231.086 7.21289C234.543 8.18945 237.141 9.78125 238.879 11.9883C240.617 14.1758 241.496 17.0762 241.516 20.6895V26.8418C241.516 31.5098 243.586 33.8438 247.727 33.8438V38.0918C243.586 38.0918 241.516 40.4648 241.516 45.2109V51.1289C241.516 54.8008 240.627 57.7402 238.85 59.9473C237.092 62.1543 234.504 63.7461 231.086 64.7227L229.943 61.3535Z" fill="#C50047"/>
<path d="M88.2761 54H69.7961C69.6361 53.76 69.5561 53.44 69.5561 53.04C69.5561 52.6 69.6961 52.2 69.9761 51.84L73.9961 51.36V18.06H70.5161C69.8761 18.06 69.5561 17.78 69.5561 17.22C69.5561 16.94 69.6561 16.46 69.8561 15.78L69.9761 15.3H86.5961C88.7561 15.3 90.6561 15.72 92.2961 16.56C93.9761 17.36 95.2761 18.5 96.1961 19.98C97.1561 21.46 97.6361 23.16 97.6361 25.08C97.6361 26.92 97.0961 28.6 96.0161 30.12C94.9361 31.64 93.4761 32.8 91.6361 33.6C94.3161 34.2 96.3961 35.38 97.8761 37.14C99.3561 38.86 100.096 41.02 100.096 43.62C100.096 45.66 99.5961 47.46 98.5961 49.02C97.5961 50.58 96.2161 51.8 94.4561 52.68C92.6961 53.56 90.6361 54 88.2761 54ZM77.3561 51.24H88.2761C90.8361 51.24 92.8561 50.56 94.3361 49.2C95.8161 47.84 96.5561 46 96.5561 43.68C96.5561 41.2 95.7561 39.18 94.1561 37.62C92.5561 36.06 90.5161 35.28 88.0361 35.28H77.3561V51.24ZM77.3561 32.58H86.5961C88.7961 32.58 90.5961 31.88 91.9961 30.48C93.3961 29.08 94.0961 27.32 94.0961 25.2C94.0961 23.08 93.3961 21.36 91.9961 20.04C90.5961 18.72 88.7961 18.06 86.5961 18.06H77.3561V32.58ZM118.8 54H104.82C104.7 53.68 104.64 53.4 104.64 53.16C104.64 52.84 104.76 52.46 105 52.02L109.08 51.54V26.82H104.52C104.4 26.54 104.34 26.26 104.34 25.98C104.34 25.62 104.46 25.24 104.7 24.84L110.64 23.7C111.32 24.06 111.88 24.5 112.32 25.02L111.54 32.34C112.62 29.7 114.12 27.6 116.04 26.04C117.96 24.44 120.06 23.64 122.34 23.64C122.78 23.64 123.28 23.68 123.84 23.76C124.44 23.8 124.98 23.88 125.46 24C125.9 24.52 126.28 25.12 126.6 25.8L126.72 32.34C126.44 32.46 126.14 32.52 125.82 32.52C125.42 32.52 125.04 32.4 124.68 32.16L123.36 26.34C123.2 26.3 123.04 26.28 122.88 26.28C122.76 26.28 122.64 26.28 122.52 26.28C120.8 26.28 119.16 26.88 117.6 28.08C116.04 29.24 114.76 30.78 113.76 32.7C112.8 34.58 112.32 36.56 112.32 38.64V51.42H118.2C118.84 51.42 119.16 51.7 119.16 52.26C119.16 52.5 119.08 52.92 118.92 53.52L118.8 54ZM143.777 54H130.997C130.877 53.68 130.817 53.4 130.817 53.16C130.817 52.84 130.937 52.46 131.177 52.02L135.857 51.54V26.82H130.997C130.877 26.54 130.817 26.26 130.817 25.98C130.817 25.62 130.937 25.24 131.177 24.84L137.417 23.7C138.097 24.06 138.657 24.5 139.097 25.02V51.42H143.177C143.817 51.42 144.137 51.7 144.137 52.26C144.137 52.5 144.057 52.92 143.897 53.52L143.777 54ZM139.277 16.08C139.277 16.84 139.037 17.46 138.557 17.94C138.077 18.38 137.417 18.6 136.577 18.6C135.737 18.6 135.077 18.38 134.597 17.94C134.117 17.46 133.877 16.84 133.877 16.08C133.877 15.32 134.117 14.72 134.597 14.28C135.077 13.8 135.737 13.56 136.577 13.56C137.417 13.56 138.077 13.8 138.557 14.28C139.037 14.72 139.277 15.32 139.277 16.08ZM175.768 53.16L169.828 54.3C169.148 53.94 168.588 53.5 168.148 52.98L168.448 48.66C167.168 50.54 165.588 52 163.708 53.04C161.868 54.08 159.828 54.6 157.588 54.6C154.828 54.6 152.588 53.82 150.868 52.26C149.188 50.7 148.348 48.68 148.348 46.2C148.348 43.36 149.468 41.16 151.708 39.6C153.988 38 157.188 37.2 161.308 37.2C162.228 37.2 163.288 37.24 164.488 37.32C165.688 37.4 166.948 37.54 168.268 37.74V35.34C168.268 29.18 165.488 26.1 159.928 26.1C158.488 26.1 156.948 26.36 155.308 26.88C153.708 27.36 152.228 28.06 150.868 28.98C150.588 28.74 150.328 28.4 150.088 27.96C149.848 27.48 149.728 27.08 149.728 26.76C151.288 25.68 152.948 24.86 154.708 24.3C156.508 23.7 158.248 23.4 159.928 23.4C167.568 23.4 171.388 27.38 171.388 35.34V51.18H175.948C176.068 51.46 176.128 51.74 176.128 52.02C176.128 52.38 176.008 52.76 175.768 53.16ZM168.268 42.72V40.32C166.988 40.16 165.748 40.04 164.548 39.96C163.348 39.84 162.268 39.78 161.308 39.78C158.148 39.78 155.748 40.32 154.108 41.4C152.468 42.44 151.648 44 151.648 46.08C151.648 47.84 152.208 49.26 153.328 50.34C154.488 51.42 156.008 51.96 157.888 51.96C159.648 51.96 161.308 51.52 162.868 50.64C164.468 49.76 165.768 48.62 166.768 47.22C167.768 45.82 168.268 44.32 168.268 42.72ZM212.454 54H200.874C200.754 53.68 200.694 53.4 200.694 53.16C200.694 52.84 200.814 52.46 201.054 52.02L205.134 51.54V34.5C205.134 28.86 202.754 26.04 197.994 26.04C196.114 26.04 194.374 26.6 192.774 27.72C191.214 28.8 189.954 30.26 188.994 32.1C188.034 33.9 187.554 35.88 187.554 38.04V51.42H191.034C191.674 51.42 191.994 51.7 191.994 52.26C191.994 52.5 191.914 52.92 191.754 53.52L191.634 54H180.054C179.934 53.68 179.874 53.4 179.874 53.16C179.874 52.84 179.994 52.46 180.234 52.02L184.314 51.54V26.82H179.754C179.634 26.54 179.574 26.26 179.574 25.98C179.574 25.62 179.694 25.24 179.934 24.84L185.874 23.7C186.554 24.06 187.114 24.5 187.554 25.02L187.134 31.02C188.254 28.58 189.794 26.7 191.754 25.38C193.714 24.06 195.974 23.4 198.534 23.4C201.734 23.4 204.174 24.36 205.854 26.28C207.534 28.16 208.374 30.9 208.374 34.5V51.42H211.854C212.494 51.42 212.814 51.7 212.814 52.26C212.814 52.5 212.734 52.92 212.574 53.52L212.454 54Z" fill="white"/>
</svg>
