<svg width="2000" height="2000" viewBox="0 0 2000 2000" fill="none" xmlns="http://www.w3.org/2000/svg">
<path d="M115.623 944.255C129.805 959.238 145.676 972.049 163.233 982.686C180.79 993.323 199.548 1001.42 219.507 1006.96C239.466 1012.51 260.026 1015.28 281.186 1015.28C306.235 1015.17 330.398 1011.05 353.674 1002.93C376.95 994.81 398.253 983.144 417.584 967.931L407.803 948.716C390.075 963.47 370.402 974.765 348.785 982.6C327.166 990.435 304.633 994.41 281.186 994.524C250.761 994.639 221.966 988.405 194.801 975.823C167.636 963.242 144.446 945.627 125.23 922.98L115.623 944.255ZM97.2647 1042.22C119.569 1061.21 143.903 1076.33 170.267 1087.6C196.631 1098.87 223.911 1106.1 252.105 1109.3C280.299 1112.51 308.408 1111.59 336.431 1106.56C364.454 1101.53 391.333 1092.26 417.069 1078.77L416.554 1055.26C391.619 1069.67 365.312 1079.65 337.632 1085.2C309.952 1090.75 282.187 1091.92 254.336 1088.72C226.484 1085.51 199.577 1078.05 173.613 1066.33C147.649 1054.6 123.915 1038.79 102.412 1018.89L97.2647 1042.22ZM182.363 1160.09L206.897 1165.75C201.178 1151.91 196.774 1137.73 193.686 1123.2C190.598 1108.67 188.939 1093.92 188.711 1078.94C187.109 1050.46 189.94 1022.78 197.203 995.897C204.466 969.018 215.647 943.883 230.745 920.492C245.843 897.102 264.315 876.485 286.162 858.642L264.201 850.064C242.583 869.279 224.34 891.097 209.47 915.517C194.601 939.937 183.592 966.015 176.444 993.752C169.295 1021.49 166.464 1050 167.951 1079.28C168.18 1093 169.495 1106.62 171.897 1120.11C174.299 1133.61 177.787 1146.93 182.363 1160.09ZM295.425 1177.07L314.814 1168.49C298.801 1145.85 286.533 1121.34 278.011 1094.98C269.491 1068.61 265.23 1041.42 265.23 1013.4C265.23 986.747 269.005 960.954 276.553 936.019C284.103 911.085 295.141 887.809 309.667 866.191L289.421 858.985C274.78 881.975 263.628 906.567 255.966 932.76C248.302 958.952 244.47 985.831 244.47 1013.4C244.47 1043.02 248.817 1071.7 257.51 1099.44C266.202 1127.18 278.841 1153.05 295.425 1177.07ZM396.48 1113.25L410.377 1097.47C391.162 1086.48 374.548 1072.7 360.537 1056.12C346.525 1039.53 335.659 1021.06 327.938 1000.7C320.217 980.341 316.186 958.952 315.844 936.534C315.729 924.524 316.701 912.629 318.76 900.848C320.818 889.067 324.02 877.686 328.367 866.706L308.294 861.044C303.718 873.054 300.344 885.378 298.171 898.017C295.998 910.656 294.968 923.552 295.083 936.706C295.426 961.068 299.715 984.373 307.95 1006.62C316.186 1028.87 327.853 1049.11 342.95 1067.35C358.049 1085.6 375.892 1100.9 396.48 1113.25ZM188.539 1013.23C195.859 1013.23 202.122 1010.59 207.326 1005.33C212.53 1000.07 215.132 993.724 215.132 986.289C215.132 978.854 212.53 972.535 207.326 967.331C202.122 962.126 195.859 959.524 188.539 959.524C180.99 959.524 174.613 962.126 169.409 967.331C164.205 972.535 161.603 978.854 161.603 986.289C161.603 993.724 164.205 1000.07 169.409 1005.33C174.613 1010.59 180.99 1013.23 188.539 1013.23ZM319.96 1027.46C327.167 1027.46 333.343 1024.86 338.49 1019.66C343.637 1014.45 346.211 1008.19 346.211 1000.87C346.211 993.666 343.637 987.49 338.49 982.343C333.343 977.196 327.167 974.622 319.96 974.622C312.526 974.622 306.235 977.196 301.088 982.343C295.941 987.49 293.368 993.666 293.368 1000.87C293.368 1008.19 295.941 1014.45 301.088 1019.66C306.235 1024.86 312.526 1027.46 319.96 1027.46ZM268.834 1126.63C276.154 1126.63 282.416 1124.03 287.62 1118.82C292.824 1113.62 295.425 1107.3 295.425 1099.87C295.425 1092.43 292.824 1086.11 287.62 1080.91C282.416 1075.7 276.154 1073.1 268.834 1073.1C261.284 1073.1 254.907 1075.7 249.703 1080.91C244.499 1086.11 241.897 1092.43 241.897 1099.87C241.897 1107.3 244.499 1113.62 249.703 1118.82C254.907 1124.03 261.284 1126.63 268.834 1126.63ZM263 1192C286.906 1192 309.41 1187.42 330.512 1178.27C351.615 1169.12 370.23 1156.49 386.357 1140.36C402.485 1124.23 415.124 1105.62 424.274 1084.51C433.425 1063.41 438 1040.91 438 1017C438 993.095 433.425 970.59 424.274 949.488C415.124 928.385 402.485 909.77 386.357 893.642C370.23 877.515 351.586 864.876 330.426 855.725C309.266 846.575 286.734 842 262.828 842C238.923 842 216.419 846.575 195.316 855.725C174.213 864.876 155.627 877.515 139.556 893.642C123.486 909.77 110.876 928.385 101.725 949.488C92.5752 970.59 88 993.095 88 1017C88 1040.91 92.5752 1063.41 101.725 1084.51C110.876 1105.62 123.515 1124.23 139.642 1140.36C155.77 1156.49 174.385 1169.12 195.488 1178.27C216.59 1187.42 239.095 1192 263 1192ZM263 1168.67C242.297 1168.67 222.796 1164.69 204.495 1156.74C186.194 1148.79 170.067 1137.84 156.113 1123.89C142.158 1109.93 131.207 1093.8 123.257 1075.5C115.308 1057.2 111.333 1037.7 111.333 1017C111.333 996.297 115.308 976.796 123.257 958.495C131.207 940.194 142.13 924.067 156.027 910.113C169.924 896.158 186.023 885.207 204.323 877.257C222.624 869.308 242.126 865.333 262.828 865.333C283.531 865.333 303.033 869.308 321.332 877.257C339.634 885.207 355.79 896.158 369.8 910.113C383.812 924.067 394.792 940.194 402.742 958.495C410.692 976.796 414.667 996.297 414.667 1017C414.667 1037.7 410.692 1057.2 402.742 1075.5C394.792 1093.8 383.841 1109.93 369.887 1123.89C355.932 1137.84 339.805 1148.79 321.504 1156.74C303.204 1164.69 283.702 1168.67 263 1168.67Z" fill="white" fill-opacity="0.85"/>
<path d="M567.4 1000.48C586.44 996.933 595.96 987.133 595.96 971.08C595.96 963.987 595.027 951.853 593.16 934.68C591.293 916.387 590.36 903.133 590.36 894.92C590.36 881.48 594.093 871.213 601.56 864.12C609.213 857.027 619.387 853.48 632.08 853.48H648.32V875.6H636.84C629.56 875.6 624.147 877.28 620.6 880.64C617.053 883.813 615.28 889.133 615.28 896.6C615.28 902.013 615.653 908.733 616.4 916.76C617.147 924.6 617.613 929.92 617.8 932.72C619.667 950.64 620.6 963.707 620.6 971.92C620.6 981.813 618.08 990.12 613.04 996.84C608.187 1003.37 600.627 1007.76 590.36 1010V1010.56C600.627 1012.8 608.187 1017.28 613.04 1024C618.08 1030.72 620.6 1039.03 620.6 1048.92C620.6 1057.13 619.667 1070.2 617.8 1088.12C617.613 1090.92 617.147 1096.33 616.4 1104.36C615.653 1112.2 615.28 1118.83 615.28 1124.24C615.28 1131.71 617.053 1137.03 620.6 1140.2C624.147 1143.56 629.56 1145.24 636.84 1145.24H648.32V1167.36H632.08C619.387 1167.36 609.213 1163.81 601.56 1156.72C594.093 1149.63 590.36 1139.36 590.36 1125.92C590.36 1117.71 591.293 1104.45 593.16 1086.16C595.027 1068.99 595.96 1056.85 595.96 1049.76C595.96 1033.71 586.44 1023.91 567.4 1020.36V1000.48ZM786.616 1014.48C793.709 1015.6 800.149 1018.49 805.936 1023.16C811.909 1027.83 816.576 1033.61 819.936 1040.52C823.483 1047.43 825.256 1054.8 825.256 1062.64C825.256 1072.53 822.736 1081.49 817.696 1089.52C812.656 1097.36 805.283 1103.61 795.576 1108.28C786.056 1112.76 774.763 1115 761.696 1115H688.896V919.84H758.896C772.149 919.84 783.443 922.08 792.776 926.56C802.109 930.853 809.109 936.733 813.776 944.2C818.443 951.667 820.776 960.067 820.776 969.4C820.776 980.973 817.603 990.587 811.256 998.24C805.096 1005.71 796.883 1011.12 786.616 1014.48ZM714.376 1004.12H757.216C769.163 1004.12 778.403 1001.32 784.936 995.72C791.469 990.12 794.736 982.373 794.736 972.48C794.736 962.587 791.469 954.84 784.936 949.24C778.403 943.64 768.976 940.84 756.656 940.84H714.376V1004.12ZM759.456 1094C772.149 1094 782.043 1091.01 789.136 1085.04C796.229 1079.07 799.776 1070.76 799.776 1060.12C799.776 1049.29 796.043 1040.8 788.576 1034.64C781.109 1028.29 771.123 1025.12 758.616 1025.12H714.376V1094H759.456ZM886.095 986.48C890.575 977.707 896.921 970.893 905.135 966.04C913.535 961.187 923.708 958.76 935.655 958.76V985.08H928.935C900.375 985.08 886.095 1000.57 886.095 1031.56V1115H860.615V961.56H886.095V986.48ZM978.228 936.64C973.374 936.64 969.268 934.96 965.908 931.6C962.548 928.24 960.868 924.133 960.868 919.28C960.868 914.427 962.548 910.32 965.908 906.96C969.268 903.6 973.374 901.92 978.228 901.92C982.894 901.92 986.814 903.6 989.988 906.96C993.348 910.32 995.028 914.427 995.028 919.28C995.028 924.133 993.348 928.24 989.988 931.6C986.814 934.96 982.894 936.64 978.228 936.64ZM990.548 961.56V1115H965.068V961.56H990.548ZM1024.45 1037.72C1024.45 1022.04 1027.63 1008.32 1033.97 996.56C1040.32 984.613 1049 975.373 1060.01 968.84C1071.21 962.307 1083.63 959.04 1097.25 959.04C1110.69 959.04 1122.36 961.933 1132.25 967.72C1142.15 973.507 1149.52 980.787 1154.37 989.56V961.56H1180.13V1115H1154.37V1086.44C1149.33 1095.4 1141.77 1102.87 1131.69 1108.84C1121.8 1114.63 1110.23 1117.52 1096.97 1117.52C1083.35 1117.52 1071.03 1114.16 1060.01 1107.44C1049 1100.72 1040.32 1091.29 1033.97 1079.16C1027.63 1067.03 1024.45 1053.21 1024.45 1037.72ZM1154.37 1038C1154.37 1026.43 1152.04 1016.35 1147.37 1007.76C1142.71 999.173 1136.36 992.64 1128.33 988.16C1120.49 983.493 1111.81 981.16 1102.29 981.16C1092.77 981.16 1084.09 983.4 1076.25 987.88C1068.41 992.36 1062.16 998.893 1057.49 1007.48C1052.83 1016.07 1050.49 1026.15 1050.49 1037.72C1050.49 1049.48 1052.83 1059.75 1057.49 1068.52C1062.16 1077.11 1068.41 1083.73 1076.25 1088.4C1084.09 1092.88 1092.77 1095.12 1102.29 1095.12C1111.81 1095.12 1120.49 1092.88 1128.33 1088.4C1136.36 1083.73 1142.71 1077.11 1147.37 1068.52C1152.04 1059.75 1154.37 1049.57 1154.37 1038ZM1297.95 958.76C1316.62 958.76 1331.74 964.453 1343.31 975.84C1354.89 987.04 1360.67 1003.28 1360.67 1024.56V1115H1335.47V1028.2C1335.47 1012.89 1331.65 1001.23 1323.99 993.2C1316.34 984.987 1305.89 980.88 1292.63 980.88C1279.19 980.88 1268.46 985.08 1260.43 993.48C1252.59 1001.88 1248.67 1014.11 1248.67 1030.16V1115H1223.19V961.56H1248.67V983.4C1253.71 975.56 1260.53 969.493 1269.11 965.2C1277.89 960.907 1287.5 958.76 1297.95 958.76ZM1592.3 1071.6H1507.18L1491.5 1115H1464.62L1535.18 920.96H1564.58L1634.86 1115H1607.98L1592.3 1071.6ZM1585.02 1050.88L1549.74 952.32L1514.46 1050.88H1585.02ZM1678.77 936.64C1673.92 936.64 1669.81 934.96 1666.45 931.6C1663.09 928.24 1661.41 924.133 1661.41 919.28C1661.41 914.427 1663.09 910.32 1666.45 906.96C1669.81 903.6 1673.92 901.92 1678.77 901.92C1683.44 901.92 1687.36 903.6 1690.53 906.96C1693.89 910.32 1695.57 914.427 1695.57 919.28C1695.57 924.133 1693.89 928.24 1690.53 931.6C1687.36 934.96 1683.44 936.64 1678.77 936.64ZM1691.09 961.56V1115H1665.61V961.56H1691.09ZM1760 907.8V1115H1734.52V907.8H1760ZM1881.83 1020.36C1862.79 1023.91 1853.27 1033.71 1853.27 1049.76C1853.27 1056.85 1854.2 1068.99 1856.07 1086.16C1857.93 1104.45 1858.87 1117.71 1858.87 1125.92C1858.87 1139.36 1855.04 1149.63 1847.39 1156.72C1839.92 1163.81 1829.84 1167.36 1817.15 1167.36H1800.91V1145.24H1812.39C1819.67 1145.24 1825.08 1143.56 1828.63 1140.2C1832.17 1137.03 1833.95 1131.71 1833.95 1124.24C1833.95 1118.83 1833.57 1112.2 1832.83 1104.36C1832.08 1096.33 1831.61 1090.92 1831.43 1088.12C1829.56 1070.2 1828.63 1057.13 1828.63 1048.92C1828.63 1039.03 1831.05 1030.72 1835.91 1024C1840.95 1017.28 1848.6 1012.8 1858.87 1010.56V1010C1848.6 1007.76 1840.95 1003.37 1835.91 996.84C1831.05 990.12 1828.63 981.813 1828.63 971.92C1828.63 963.707 1829.56 950.64 1831.43 932.72C1831.61 929.92 1832.08 924.6 1832.83 916.76C1833.57 908.733 1833.95 902.013 1833.95 896.6C1833.95 889.133 1832.17 883.813 1828.63 880.64C1825.08 877.28 1819.67 875.6 1812.39 875.6H1800.91V853.48H1817.15C1829.84 853.48 1839.92 857.027 1847.39 864.12C1855.04 871.213 1858.87 881.48 1858.87 894.92C1858.87 903.133 1857.93 916.387 1856.07 934.68C1854.2 951.853 1853.27 963.987 1853.27 971.08C1853.27 987.133 1862.79 996.933 1881.83 1000.48V1020.36Z" fill="white"/>
</svg>
